<svg width="18" height="17" viewBox="0 0 18 17" fill="none" xmlns="http://www.w3.org/2000/svg">
<g id="ellipsis-svgrepo-com 1" clip-path="url(#clip0_2594_1696)">
<g id="Group">
<g id="Group_2">
<path id="Vector" d="M4.94647 8.49901C4.94647 9.75264 3.83987 10.7658 2.47348 10.7658C1.10753 10.7654 0.000488281 9.75223 0.000488281 8.49901C0.000488281 7.24904 1.10798 6.23389 2.47348 6.23389C3.83987 6.23389 4.94647 7.24904 4.94647 8.49901Z" fill="black"/>
<path id="Vector_2" d="M11.6064 8.49901C11.6064 9.75264 10.4998 10.7658 9.13385 10.7658C7.7679 10.7658 6.66085 9.75264 6.66085 8.49901C6.66085 7.24904 7.76834 6.23389 9.13385 6.23389C10.5002 6.23389 11.6064 7.24904 11.6064 8.49901Z" fill="black"/>
<path id="Vector_3" d="M18.2664 8.49901C18.2664 9.75264 17.1598 10.7658 15.7934 10.7658C14.4275 10.7658 13.3209 9.75264 13.3209 8.49901C13.3209 7.24904 14.4284 6.23389 15.7934 6.23389C17.1598 6.23389 18.2664 7.24904 18.2664 8.49901Z" fill="black"/>
</g>
</g>
</g>
<defs>
<clipPath id="clip0_2594_1696">
<rect width="18" height="17" fill="white"/>
</clipPath>
</defs>
</svg>
